<?xml version="1.0" encoding="UTF-8" standalone="no"?>
<svg
   xmlns:dc="http://purl.org/dc/elements/1.1/"
   xmlns:cc="http://creativecommons.org/ns#"
   xmlns:rdf="http://www.w3.org/1999/02/22-rdf-syntax-ns#"
   xmlns:svg="http://www.w3.org/2000/svg"
   xmlns="http://www.w3.org/2000/svg"
   xmlns:sodipodi="http://sodipodi.sourceforge.net/DTD/sodipodi-0.dtd"
   xmlns:inkscape="http://www.inkscape.org/namespaces/inkscape"
   id="Layer_1"
   data-name="Layer 1"
   viewBox="0 0 250.89 28.72"
   version="1.1"
   sodipodi:docname="terminalfx.svg"
   width="250.89"
   height="28.719999"
   inkscape:version="0.92.5 (2060ec1f9f, 2020-04-08)">
  <metadata
     id="metadata15">
    <rdf:RDF>
      <cc:Work
         rdf:about="">
        <dc:format>image/svg+xml</dc:format>
        <dc:type
           rdf:resource="http://purl.org/dc/dcmitype/StillImage" />
        <dc:title>logoTFX1 [Converted]2_gray</dc:title>
      </cc:Work>
    </rdf:RDF>
  </metadata>
  <sodipodi:namedview
     pagecolor="#ffffff"
     bordercolor="#666666"
     borderopacity="1"
     objecttolerance="10"
     gridtolerance="10"
     guidetolerance="10"
     inkscape:pageopacity="0"
     inkscape:pageshadow="2"
     inkscape:window-width="1920"
     inkscape:window-height="1029"
     id="namedview13"
     showgrid="false"
     inkscape:zoom="4.5278808"
     inkscape:cx="231.66314"
     inkscape:cy="22.800941"
     inkscape:window-x="0"
     inkscape:window-y="25"
     inkscape:window-maximized="1"
     inkscape:current-layer="Layer_1" />
  <defs
     id="defs4">
    <style
       id="style2">.cls-1{fill:#ed1c24;}.cls-1,.cls-2{fill-rule:evenodd;}.cls-2{fill:#e6e7e8;}</style>
  </defs>
  <title
     id="title6">logoTFX1 [Converted]2_gray</title>
  <path
     class="cls-1"
     d="m 182.18,5.61 a 89.48,89.48 0 0 1 21.8,0 5,5 0 0 1 4.49,4.45 55.07,55.07 0 0 1 0.44,6.78 56.16,56.16 0 0 1 -0.45,6.77 5,5 0 0 1 -4.49,4.45 89.86,89.86 0 0 1 -21.8,0 5,5 0 0 1 -4.49,-4.44 51.91,51.91 0 0 1 0,-13.55 5,5 0 0 1 4.49,-4.45 m 17.73,15.76 c 0,-2.54 -1.37,-4.93 -2.42,-6.76 a 6.69,6.69 0 0 1 -1.16,-2.6 1.06,1.06 0 0 1 0.46,-1 1.23,1.23 0 0 0 -1.25,1.46 c 0.05,0.55 0.3,1.08 0.3,1.66 a 1.34,1.34 0 0 1 -1.34,1.33 1.84,1.84 0 0 1 -1.63,-2.26 c 0.18,-1.71 1.71,-2.7 1.83,-4.84 a 5,5 0 0 0 -1.62,-4 3.77,3.77 0 0 1 -1.18,3.7 6.21,6.21 0 0 0 -2,3.41 c -0.41,3.46 3,4.44 3,7.67 a 2.24,2.24 0 0 1 -4.48,0 c 0,-1.75 0.68,-3.14 0.32,-4.58 a 2,2 0 0 0 -1.74,-1.57 1.61,1.61 0 0 1 0.47,2 c -0.75,2 -2.41,3.44 -2.41,6.26 a 7.415,7.415 0 0 0 14.83,0"
     id="path8"
     inkscape:connector-curvature="0"
     style="fill:#ed1c24;fill-rule:evenodd" />
  <path
     class="cls-2"
     d="m 218.48,14.95 h 9.44 v 3.77 h -9.44 v 8.48 h -6.14 v -17 a 3.78,3.78 0 0 1 3.78,-3.78 h 11.8 v 3.78 h -8.5 a 0.94,0.94 0 0 0 -0.94,0.94 v 3.78 m 32.41,12.28 -7.27,-10.38 7.27,-10.38 h -6.91 l -3.81,5.44 -3.81,-5.44 h -6.92 l 7.27,10.38 -7.28,10.38 h 6.93 l 3.81,-5.44 3.81,5.44 z M 6.42,22.64 V 10.39 h 7.56 V 6.61 H 6.43 V 0 h -6.45 v 23.61 a 3.77,3.77 0 0 0 3.78,3.77 H 14.9 V 23.61 H 7.35 A 1,1 0 0 1 6.43,22.66 Z m 96.13,4.72 h 6.43 V 6.61 h -6.42 z M 94.05,6.59 H 67.24 a 3.78,3.78 0 0 0 -3.78,3.78 v 17 h 6.42 V 11.33 a 1,1 0 0 1 0.95,-0.94 h 6.61 v 17 h 6.42 v -17 h 6.61 a 1,1 0 0 1 0.94,0.94 v 16.05 h 6.42 v -17 A 3.92,3.92 0 0 0 94.06,6.61 Z m -56.85,0 H 22.48 a 3.78,3.78 0 0 0 -3.78,3.78 v 13.22 a 3.78,3.78 0 0 0 3.78,3.77 h 17.57 v -3.77 h -14 A 0.94,0.94 0 0 1 25.11,22.64 V 18.86 H 37.2 a 3.89,3.89 0 0 0 3.77,-3.77 v 0 -4.73 A 3.78,3.78 0 0 0 37.21,6.61 Z m -2.63,7.61 a 0.94,0.94 0 0 1 -0.94,0.95 h -8.5 v -3.78 a 1,1 0 0 1 0.94,-0.94 h 7.56 a 1,1 0 0 1 0.94,0.94 z M 158.28,6.65 h -17.57 v 3.78 h 14 a 0.94,0.94 0 0 1 0.95,0.94 v 3.78 h -12.12 a 3.89,3.89 0 0 0 -3.77,3.77 v 0 4.73 a 3.78,3.78 0 0 0 3.78,3.78 h 14.73 a 3.78,3.78 0 0 0 3.78,-3.78 V 10.39 a 3.78,3.78 0 0 0 -3.79,-3.78 z m -2.64,16.05 a 1,1 0 0 1 -0.95,0.95 h -7.55 a 1,1 0 0 1 -0.95,-0.95 v -2.83 a 1,1 0 0 1 0.95,-0.95 h 8.5 z M 132.22,6.65 h -14.74 a 3.78,3.78 0 0 0 -3.78,3.78 v 17 h 6.42 v -16.1 a 1,1 0 0 1 0.94,-0.94 h 7.55 a 1,1 0 0 1 0.95,0.94 v 16.05 h 6.42 v -17 a 3.78,3.78 0 0 0 -3.77,-3.77 z m 34.56,20.77 h 6.42 V 0 h -6.42 z m -122,-17 v 17 H 51.2 V 11.33 a 1,1 0 0 1 0.94,-0.94 h 8.5 V 6.61 h -12.1 a 3.78,3.78 0 0 0 -3.78,3.78 z"
     id="path10"
     inkscape:connector-curvature="0"
     style="fill:#ffffff;fill-rule:evenodd;fill-opacity:1" />
</svg>
